<svg width="20" height="20" viewBox="0 0 20 20" fill="none" xmlns="http://www.w3.org/2000/svg">
<path fill-rule="evenodd" clip-rule="evenodd" d="M19.0837 5.83329C19.0837 3.11995 16.8803 0.916626 14.167 0.916626H5.83366C3.12033 0.916626 0.916992 3.11995 0.916992 5.83329V14.1666C0.916992 16.88 3.12033 19.0833 5.83366 19.0833H14.167C16.8803 19.0833 19.0837 16.88 19.0837 14.1666V5.83329ZM17.5837 5.83329V14.1666C17.5837 16.0525 16.0528 17.5833 14.167 17.5833H5.83366C3.94783 17.5833 2.41699 16.0525 2.41699 14.1666V5.83329C2.41699 3.94745 3.94783 2.41662 5.83366 2.41662H14.167C16.0528 2.41662 17.5837 3.94745 17.5837 5.83329ZM14.0753 9.36496C13.8128 7.59079 12.4095 6.18745 10.6353 5.92495C10.437 5.89495 10.237 5.88079 10.0362 5.88079C7.79616 5.88079 5.95282 7.72412 5.95282 9.96412C5.95282 12.2041 7.79616 14.0474 10.0362 14.0474C12.2762 14.0474 14.1195 12.2041 14.1195 9.96412C14.1195 9.76329 14.1053 9.56329 14.0753 9.36496ZM12.592 9.58495C12.6103 9.71079 12.6195 9.83745 12.6195 9.96412C12.6195 11.3808 11.4537 12.5475 10.0362 12.5475C8.61949 12.5475 7.45283 11.3808 7.45283 9.96412C7.45283 8.54662 8.61949 7.38078 10.0362 7.38078C10.1628 7.38078 10.2895 7.38995 10.4153 7.40829C11.5378 7.57495 12.4253 8.46245 12.592 9.58495ZM14.5837 4.66663C14.9978 4.66663 15.3337 5.00245 15.3337 5.41662C15.3337 5.83079 14.9978 6.16662 14.5837 6.16662C14.1695 6.16662 13.8337 5.83079 13.8337 5.41662C13.8337 5.00245 14.1695 4.66663 14.5837 4.66663Z" fill="#A7A8AA"/>
</svg>
