<svg width="14" height="14" viewBox="0 0 14 14" fill="none" xmlns="http://www.w3.org/2000/svg">
<path fill-rule="evenodd" clip-rule="evenodd" d="M13.9998 11.0519C14.0048 10.9809 13.9945 10.9097 13.9698 10.8429C13.7691 10.6032 13.5081 10.4213 13.2138 10.3159C12.6498 9.99995 12.0728 9.68995 11.5148 9.36295C11.2616 9.13993 10.9573 8.98294 10.6288 8.90595C10.0218 8.90595 9.13577 10.7059 8.59777 10.7059C8.28719 10.6417 7.99479 10.5092 7.74177 10.3179C6.01246 9.39593 4.59591 7.98112 3.67177 6.25295C3.48048 6.00096 3.3476 5.7096 3.28277 5.39995C3.28277 4.86395 5.08277 3.97895 5.08277 3.37295C5.00541 3.04469 4.84807 2.74067 4.62477 2.48795C4.29977 1.93195 3.98977 1.35495 3.67177 0.788946C3.56615 0.494749 3.38387 0.234101 3.14377 0.033946C3.07733 0.00782169 3.00606 -0.00377159 2.93477 -5.40401e-05C2.45966 0.0288667 1.99233 0.134219 1.55077 0.311946C1.08233 0.596115 0.714758 1.01999 0.49977 1.52395C0.173818 2.08595 -0.00214894 2.72232 -0.0112305 3.37195C0.0623214 4.2724 0.29492 5.15269 0.67577 5.97195C0.889313 6.5796 1.16546 7.16341 1.49977 7.71395C2.75299 9.61083 4.37853 11.2333 6.27777 12.4829C6.82824 12.8176 7.41205 13.0941 8.01977 13.3079C8.84179 13.6888 9.72476 13.921 10.6278 13.9939C11.278 13.9859 11.9152 13.8113 12.4788 13.4869C12.9836 13.272 13.4082 12.9041 13.6928 12.4349C13.8688 11.9935 13.9725 11.5265 13.9998 11.0519Z" fill="white"/>
</svg>
