<svg width="20" height="16" viewBox="0 0 20 16" fill="none" xmlns="http://www.w3.org/2000/svg">
<path fill-rule="evenodd" clip-rule="evenodd" d="M19.13 8.776C18.855 8.43174 18.5085 8.15133 18.1145 7.95415C17.7205 7.75697 17.2884 7.64774 16.848 7.634C16.9406 6.73922 17.2876 5.88971 17.848 5.186C18.3962 4.45208 19.13 3.8774 19.974 3.521L17.973 0C17.2592 0.280083 16.5693 0.61752 15.91 1.009C15.0552 1.51664 14.2849 2.15466 13.627 2.9C12.8377 3.80066 12.2037 4.82632 11.751 5.935C11.1939 7.34687 10.9279 8.85676 10.969 10.374C10.8948 11.8486 11.3617 13.2994 12.282 14.454C12.7316 14.9668 13.2914 15.3712 13.9196 15.6369C14.5477 15.9025 15.2278 16.0226 15.909 15.988C17.0309 16.0212 18.1206 15.6109 18.942 14.846C19.3496 14.4561 19.6692 13.9836 19.8794 13.4602C20.0897 12.9368 20.1857 12.3745 20.161 11.811C20.2154 10.7051 19.8468 9.61991 19.13 8.776ZM8.02997 8.776C7.75499 8.43174 7.40851 8.15133 7.0145 7.95415C6.62049 7.75697 6.18835 7.64774 5.74797 7.634C5.84059 6.73922 6.18761 5.88971 6.74797 5.186C7.29668 4.45235 8.03082 3.87801 8.87497 3.522L6.87297 0C6.15919 0.280083 5.46927 0.61752 4.80997 1.009C3.95516 1.51663 3.18488 2.15465 2.52697 2.9C1.7375 3.80126 1.10351 4.82761 0.650969 5.937C0.094234 7.34894 -0.171417 8.85883 -0.130031 10.376C-0.204257 11.8506 0.262665 13.3015 1.18297 14.456C1.63268 14.9686 2.19259 15.3728 2.82072 15.6383C3.44885 15.9038 4.12892 16.0237 4.80997 15.989C5.93185 16.0222 7.02162 15.6119 7.84297 14.847C8.25059 14.4571 8.57021 13.9846 8.78044 13.4612C8.99067 12.9378 9.08665 12.3755 9.06197 11.812C9.11642 10.7056 8.7474 9.62002 8.02997 8.776Z" fill="white"/>
</svg>
