<svg width="16" height="16" viewBox="0 0 16 16" fill="none" xmlns="http://www.w3.org/2000/svg">
<path fill-rule="evenodd" clip-rule="evenodd" d="M15.644 15.644C15.4257 15.8623 15.1297 15.9849 14.821 15.9849C14.5123 15.9849 14.2163 15.8623 13.998 15.644L11.048 12.694C9.61076 13.7186 7.84095 14.1656 6.08959 13.9463C4.33823 13.727 2.73325 12.8575 1.59301 11.5102C0.452762 10.1629 -0.139461 8.43624 -0.0661966 6.67272C0.00706767 4.90921 0.740467 3.23764 1.98854 1.98957C3.2366 0.741505 4.90817 0.00810527 6.67168 -0.065159C8.4352 -0.138423 10.1618 0.4538 11.5091 1.59405C12.8564 2.73429 13.7259 4.33926 13.9452 6.09062C14.1645 7.84199 13.7175 9.6118 12.693 11.049L15.644 14C15.8616 14.2182 15.9838 14.5138 15.9838 14.822C15.9838 15.1302 15.8616 15.4258 15.644 15.644ZM6.99998 2.00002C6.01108 2.00002 5.04438 2.29327 4.22213 2.84267C3.39989 3.39208 2.75902 4.17297 2.38059 5.0866C2.00215 6.00023 1.90313 7.00557 2.09606 7.97547C2.28898 8.94538 2.76519 9.83629 3.46445 10.5356C4.16371 11.2348 5.05463 11.711 6.02453 11.9039C6.99444 12.0969 7.99977 11.9979 8.9134 11.6194C9.82703 11.241 10.6079 10.6001 11.1573 9.77787C11.7067 8.95563 12 7.98893 12 7.00002C12 6.34341 11.8707 5.69323 11.6194 5.0866C11.3681 4.47998 10.9998 3.92878 10.5355 3.46449C10.0712 3.00019 9.52003 2.6319 8.9134 2.38062C8.30677 2.12935 7.65659 2.00002 6.99998 2.00002Z" fill="#E5E6EC"/>
</svg>
