<svg width="22" height="14" viewBox="0 0 22 14" fill="none" xmlns="http://www.w3.org/2000/svg">
<path fill-rule="evenodd" clip-rule="evenodd" d="M21.4958 1.45237C21.648 0.951873 21.4958 0.583374 20.767 0.583374H18.3608C17.7485 0.583374 17.4661 0.901457 17.313 1.25254C17.313 1.25254 16.0893 4.1822 14.3559 6.0852C13.7949 6.63703 13.5401 6.81211 13.2339 6.81211C13.0808 6.81211 12.8507 6.63703 12.8507 6.13561V1.45237C12.8507 0.85104 12.6821 0.583374 12.1724 0.583374H8.3884C8.00615 0.583374 7.77607 0.86204 7.77607 1.12696C7.77607 1.69621 8.64323 1.8282 8.73215 3.43054V6.91203C8.73215 7.67561 8.5919 7.81403 8.28573 7.81403C7.4699 7.81403 5.48532 4.87062 4.30741 1.50279C4.07916 0.847373 3.84816 0.583374 3.23308 0.583374H0.824998C0.1375 0.583374 0 0.901457 0 1.25254C0 1.8777 0.815832 4.98337 3.79958 9.09094C5.78874 11.8959 8.58915 13.4167 11.1402 13.4167C12.6701 13.4167 12.859 13.0793 12.859 12.4973V10.377C12.859 9.70144 13.0038 9.56669 13.4887 9.56669C13.8462 9.56669 14.4576 9.74269 15.8858 11.0948C17.5175 12.698 17.786 13.4167 18.7045 13.4167H21.1108C21.7983 13.4167 22.143 13.0793 21.945 12.412C21.7268 11.7484 20.9476 10.7849 19.9145 9.64186C19.3535 8.99102 18.512 8.28978 18.2563 7.93869C17.8997 7.48861 18.0015 7.28786 18.2563 6.88728C18.2563 6.88728 21.1896 2.83012 21.4949 1.45237H21.4958Z" fill="#A7A8AA"/>
</svg>
